# xmcd
#
# Track frame offsets:
#  150
#  13233
#  25742
#  43432
#  57833
#  69655
#  89107
#  101791
#  119471
#  132415
#  145858
#  166878
#  180890
#  192780
#
# Disc length: 2757 seconds
#
# Revision: 0
# Processed by: cddbd v1.4PL0 Copyright (c) Steve Scherf et al.
# Submitted via: AltoMP3_Maker 3.0
#
DISCID=ca0ac30e
DTITLE=Late Night Radio - Midnight Airwaves
DYEAR=1900
DGENRE=
TTITLE0=Miles and Miles of Texas
TTITLE1=Tennessee Saturday Night
TTITLE2=Sitting Alone in the Moonlight
TTITLE3=Road to Jericho
TTITLE4=Goin' Steady
TTITLE5=Bachelor Ways
TTITLE6=Sigh and Try Again
TTITLE7=Change To Come
TTITLE8=Why Don't You Do Right?
TTITLE9=Red Hen Strut
TTITLE10=Darkness On The Delta
TTITLE11=I Am A Man Of Constant Sorrow
TTITLE12=Blues Stay  Away From Me
TTITLE13=Please Don't Talk About Me When I'm Gone
EXTD=
EXTT0=
EXTT1=
EXTT2=
EXTT3=
EXTT4=
EXTT5=
EXTT6=
EXTT7=
EXTT8=
EXTT9=
EXTT10=
EXTT11=
EXTT12=
EXTT13=
PLAYORDER=
